<svg width="20" height="20" viewBox="0 0 20 20" fill="none" xmlns="http://www.w3.org/2000/svg">
<path d="M15.8333 10C15.8333 8.375 15.2674 6.99653 14.1354 5.86458C13.0035 4.73264 11.625 4.16667 10 4.16667V2.5C11.0417 2.5 12.0174 2.69792 12.9271 3.09375C13.8368 3.48958 14.6285 4.02431 15.3021 4.69792C15.9757 5.37153 16.5104 6.16319 16.9062 7.07292C17.3021 7.98264 17.5 8.95833 17.5 10H15.8333ZM12.5 10C12.5 9.30556 12.2569 8.71528 11.7708 8.22917C11.2847 7.74306 10.6944 7.5 10 7.5V5.83333C11.1528 5.83333 12.1354 6.23958 12.9479 7.05208C13.7604 7.86458 14.1667 8.84722 14.1667 10H12.5ZM16.625 17.5C14.8889 17.5 13.1701 17.125 11.4688 16.375C9.76736 15.625 8.22222 14.5556 6.83333 13.1667C5.44444 11.7778 4.375 10.2361 3.625 8.54167C2.875 6.84722 2.5 5.125 2.5 3.375V2.5H7.41667L8.1875 6.6875L5.8125 9.08333C6.11806 9.625 6.45833 10.1389 6.83333 10.625C7.20833 11.1111 7.61111 11.5625 8.04167 11.9792C8.44444 12.3819 8.88542 12.7674 9.36458 13.1354C9.84375 13.5035 10.3611 13.8472 10.9167 14.1667L13.3333 11.75L17.5 12.6042V17.5H16.625ZM5.02083 7.5L6.39583 6.125L6.04167 4.16667H4.1875C4.25694 4.79167 4.36111 5.37847 4.5 5.92708C4.63889 6.47569 4.8125 7 5.02083 7.5ZM12.4792 14.9583C13.0347 15.1944 13.5938 15.3819 14.1562 15.5208C14.7188 15.6597 15.2778 15.75 15.8333 15.7917V13.9583L13.875 13.5625L12.4792 14.9583Z" fill="#F29255"/>
</svg>
