<svg width="20" height="20" viewBox="0 0 20 20" fill="none" xmlns="http://www.w3.org/2000/svg">
<path d="M10.6458 13.5208L17.4375 6.75L16.25 5.5625L9.47917 12.3542L10.6458 13.5208ZM4.97917 16C3.71528 15.9583 2.73611 15.6806 2.04167 15.1667C1.34722 14.6528 1 13.9514 1 13.0625C1 12.1875 1.34722 11.4861 2.04167 10.9583C2.73611 10.4306 3.70139 10.125 4.9375 10.0417C5.42361 10.0139 5.80556 9.92708 6.08333 9.78125C6.36111 9.63542 6.5 9.45139 6.5 9.22917C6.5 8.85417 6.3125 8.57639 5.9375 8.39583C5.5625 8.21528 4.89583 8.08333 3.9375 8L4.0625 6.5C5.39583 6.58333 6.38542 6.85069 7.03125 7.30208C7.67708 7.75347 8 8.39583 8 9.22917C8 9.89583 7.74306 10.4306 7.22917 10.8333C6.71528 11.2361 5.98611 11.4722 5.04167 11.5417C4.19444 11.6111 3.55903 11.7708 3.13542 12.0208C2.71181 12.2708 2.5 12.6181 2.5 13.0625C2.5 13.5208 2.70139 13.8646 3.10417 14.0938C3.50694 14.3229 4.15278 14.4583 5.04167 14.5L4.97917 16ZM10.9583 15.3333L7.66667 12.0208L16.25 3.4375L19.5417 6.75L10.9583 15.3333ZM10.9583 15.3333L6.8125 16.1875L7.66667 12.0208L10.9583 15.3333Z" fill="#1D40BF"/>
</svg>
