<svg width="20" height="20" viewBox="0 0 20 20" fill="none" xmlns="http://www.w3.org/2000/svg">
<path d="M9.91658 18.3334L13.7083 8.33341H15.4583L19.2499 18.3334H17.4999L16.6041 15.7917H12.5624L11.6666 18.3334H9.91658ZM3.33325 15.8334L2.16659 14.6667L6.37492 10.4584C5.88881 9.9723 5.44783 9.41675 5.052 8.79175C4.65617 8.16675 4.29158 7.45841 3.95825 6.66675H5.70825C5.98603 7.20841 6.26381 7.68064 6.54158 8.08341C6.81936 8.48619 7.1527 8.88897 7.54158 9.29175C7.99992 8.83341 8.47561 8.19105 8.96867 7.36466C9.46172 6.53828 9.83325 5.75008 10.0833 5.00008H0.833252V3.33341H6.66658V1.66675H8.33325V3.33341H14.1666V5.00008H11.7499C11.4583 6.00008 11.0208 7.02786 10.4374 8.08341C9.85408 9.13897 9.2777 9.94453 8.70825 10.5001L10.7083 12.5417L10.0833 14.2501L7.54158 11.6459L3.33325 15.8334ZM13.0833 14.3334H16.0833L14.5833 10.0834L13.0833 14.3334Z" fill="#1D40BF"/>
</svg>
