<svg width="75" height="75" viewBox="0 0 75 75" fill="none" xmlns="http://www.w3.org/2000/svg">
<path d="M37.5 7.5C20.9325 7.5 7.5 20.9325 7.5 37.5C7.5 51.5575 17.18 63.32 30.23 66.575C30.09 66.17 30 65.7 30 65.1175V59.99C28.7825 59.99 26.7425 59.99 26.23 59.99C24.1775 59.99 22.3525 59.1075 21.4675 57.4675C20.485 55.645 20.315 52.8575 17.88 51.1525C17.1575 50.585 17.7075 49.9375 18.54 50.025C20.0775 50.46 21.3525 51.515 22.5525 53.08C23.7475 54.6475 24.31 55.0025 26.5425 55.0025C27.625 55.0025 29.245 54.94 30.77 54.7C31.59 52.6175 33.0075 50.7 34.74 49.795C24.75 48.7675 19.9825 43.7975 19.9825 37.05C19.9825 34.145 21.22 31.335 23.3225 28.9675C22.6325 26.6175 21.765 21.825 23.5875 20C28.0825 20 30.8 22.915 31.4525 23.7025C33.6925 22.935 36.1525 22.5 38.7375 22.5C41.3275 22.5 43.7975 22.935 46.0425 23.7075C46.6875 22.925 49.4075 20 53.9125 20C55.7425 21.8275 54.865 26.64 54.1675 28.985C56.2575 31.3475 57.4875 34.15 57.4875 37.05C57.4875 43.7925 52.7275 48.76 42.7525 49.7925C45.4975 51.225 47.5 55.25 47.5 58.2825V65.1175C47.5 65.3775 47.4425 65.565 47.4125 65.7875C59.1025 61.69 67.5 50.59 67.5 37.5C67.5 20.9325 54.0675 7.5 37.5 7.5Z" fill="#E6E9F2"/>
</svg>
