<svg width="75" height="75" viewBox="0 0 75 75" fill="none" xmlns="http://www.w3.org/2000/svg">
<path d="M58.8571 7H13.1429C9.2 7 6 10.2 6 14.1429V59.8571C6 63.8 9.2 67 13.1429 67H58.8571C62.8 67 66 63.8 66 59.8571V14.1429C66 10.2 62.8 7 58.8571 7ZM24.5714 29.8571V57H16V29.8571H24.5714ZM16 21.9571C16 19.9571 17.7143 18.4286 20.2857 18.4286C22.8571 18.4286 24.4714 19.9571 24.5714 21.9571C24.5714 23.9571 22.9714 25.5714 20.2857 25.5714C17.7143 25.5714 16 23.9571 16 21.9571ZM56 57H47.4286C47.4286 57 47.4286 43.7714 47.4286 42.7143C47.4286 39.8571 46 37 42.4286 36.9429H42.3143C38.8571 36.9429 37.4286 39.8857 37.4286 42.7143C37.4286 44.0143 37.4286 57 37.4286 57H28.8571V29.8571H37.4286V33.5143C37.4286 33.5143 40.1857 29.8571 45.7286 29.8571C51.4 29.8571 56 33.7571 56 41.6571V57Z" fill="#E6E9F2"/>
</svg>
