<svg width="78" height="27" viewBox="0 0 78 27" fill="none" xmlns="http://www.w3.org/2000/svg">
<path d="M8.14 20L0.1 11.93L8.14 3.89L10.27 5.99L4.33 11.93L10.27 17.87L8.14 20ZM16.8855 23L13.5555 19.67V14.57H17.3055L17.3355 18.38L18.6255 19.7H22.5255L23.8455 18.38V0.889999H27.6255V19.67L24.2955 23H16.8855ZM30.3215 23L37.5215 0.889999H43.1315L50.3315 23H46.3415L44.6915 17.63H35.9615L34.3115 23H30.3215ZM36.9515 14.33H43.6715L40.6715 4.46H39.9515L36.9515 14.33ZM51.2172 26.27L60.4872 0.889999H64.2972L55.0272 26.27H51.2172ZM69.0848 20L66.9848 17.87L72.9248 11.93L66.9848 5.99L69.0848 3.89L77.1548 11.93L69.0848 20Z" fill="#E6E9F2"/>
</svg>
