<svg width="234" height="27" viewBox="0 0 234 27" fill="none" xmlns="http://www.w3.org/2000/svg">
<path d="M8.14 20L0.1 11.93L8.14 3.89L10.27 5.99L4.33 11.93L10.27 17.87L8.14 20ZM16.8855 23L13.5555 19.67V14.57H17.3055L17.3355 18.38L18.6255 19.7H22.5255L23.8455 18.38V0.889999H27.6255V19.67L24.2955 23H16.8855ZM35.3015 23L31.9715 19.67V10.67L35.3015 7.31H43.1615L46.4915 10.67V19.67L43.1615 23H35.3015ZM36.9215 20.21L41.5415 20.18L42.8615 18.86V11.45L41.5415 10.13H36.9215L35.6015 11.45V18.86L36.9215 20.21ZM57.4792 5.6L55.4092 3.62H54.4792L53.4292 4.73V5.51H51.2992L51.3292 3.35L53.3092 1.34H56.7292L58.7992 3.32H59.7292L60.7792 2.24V1.46H62.8792L62.8492 3.59L60.8692 5.6H57.4792ZM52.6792 23L49.3492 19.67V16.28L52.6792 12.92H60.2692V11.6L58.9492 10.28H51.4192V7.31H60.5692L63.8992 10.67V23H60.2692V20.72L57.9592 23H52.6792ZM54.2992 20.21L57.1192 20.18L60.2692 17.03V15.74H54.2992L52.9792 17.06V18.86L54.2992 20.21ZM71.278 23L67.948 19.67V10.67L71.278 7.31H79.138L82.468 10.67V19.67L79.138 23H71.278ZM72.898 20.21L77.518 20.18L78.838 18.86V11.45L77.518 10.13H72.898L71.578 11.45V18.86L72.898 20.21ZM91.8449 23L99.0449 0.889999H104.655L111.855 23H107.865L106.215 17.63H97.4849L95.8349 23H91.8449ZM98.4749 14.33H105.195L102.195 4.46H101.475L98.4749 14.33ZM114.391 23V7.31H118.021V10.1L120.841 7.31H126.451L129.781 10.67V23H126.151V11.51L124.891 10.13H121.711L118.021 13.79V23H114.391ZM137.287 23L134.257 20.03V10.13H132.997V7.31H134.347L135.307 3.5H137.887V7.31H140.617V10.13H137.887V18.74L139.117 20.03H141.337V23H137.287ZM147.509 23L144.179 19.67V10.67L147.509 7.31H155.369L158.699 10.67V19.67L155.369 23H147.509ZM149.129 20.21L153.749 20.18L155.069 18.86V11.45L153.749 10.13H149.129L147.809 11.45V18.86L149.129 20.21ZM162.906 23V7.31H166.536V10.1L169.356 7.31H174.966L178.296 10.67V23H174.666V11.51L173.406 10.13H170.226L166.536 13.79V23H162.906ZM182.652 5.6V1.85H186.282V5.6H182.652ZM182.652 23V7.31H186.282V23H182.652ZM193.827 23L190.497 19.67V10.67L193.827 7.31H201.687L205.017 10.67V19.67L201.687 23H193.827ZM195.447 20.21L200.067 20.18L201.387 18.86V11.45L200.067 10.13H195.447L194.127 11.45V18.86L195.447 20.21ZM207.575 26.27L216.845 0.889999H220.655L211.385 26.27H207.575ZM225.442 20L223.342 17.87L229.282 11.93L223.342 5.99L225.442 3.89L233.512 11.93L225.442 20Z" fill="#E6E9F2"/>
</svg>
