<svg width="75" height="75" viewBox="0 0 75 75" fill="none" xmlns="http://www.w3.org/2000/svg">
<path d="M36.0001 7C19.4584 7 6.00019 20.4583 6.00019 37C6.00019 42.1652 7.33454 47.2444 9.86496 51.7261L6.04845 65.3435C5.92324 65.7909 6.04454 66.2709 6.36802 66.6035C6.61715 66.8604 6.95628 67 7.30454 67C7.40888 67 7.51454 66.987 7.61758 66.9622L21.8297 63.4417C26.1693 65.7713 31.0566 67 36.0001 67C52.5418 67 66 53.5417 66 37C66 20.4583 52.5418 7 36.0001 7ZM51.0914 47.5861C50.4496 49.3626 47.3714 50.9839 45.8922 51.2017C44.5644 51.3961 42.8844 51.4796 41.0401 50.9004C39.9223 50.5483 38.4875 50.0813 36.6497 49.2974C28.924 46.0026 23.8788 38.3213 23.4927 37.8139C23.108 37.3065 20.348 33.6909 20.348 29.9487C20.348 26.2065 22.3371 24.3661 23.0441 23.6043C23.751 22.8426 24.5845 22.6522 25.0984 22.6522C25.6123 22.6522 26.1249 22.6587 26.5749 22.6796C27.0484 22.703 27.6836 22.5009 28.3084 23.9852C28.9501 25.5087 30.4906 29.2509 30.681 29.633C30.874 30.0139 31.0019 30.4587 30.7462 30.9661C30.4905 31.4735 30.3627 31.7904 29.9766 32.2352C29.5906 32.68 29.1679 33.2265 28.821 33.5683C28.4349 33.9478 28.0345 34.3587 28.4832 35.1204C28.9319 35.8822 30.4775 38.3722 32.7679 40.3887C35.7092 42.9791 38.1914 43.7826 38.961 44.1635C39.7305 44.5443 40.1805 44.4804 40.6292 43.973C41.0779 43.4644 42.5544 41.7517 43.067 40.9913C43.5796 40.2309 44.0935 40.3561 44.8005 40.6104C45.5075 40.8635 49.294 42.7026 50.0635 43.0835C50.8331 43.4643 51.347 43.6548 51.54 43.9717C51.7331 44.2874 51.7331 45.8109 51.0914 47.5861Z" fill="#E6E9F2"/>
</svg>
